[Header]
FileType HTR
DataType HTRS
FileVersion 1
NumSegments 64
NumFrames 4
DataFrameRate 30
EulerRotationOrder ZYX
CalibrationUnits mm
RotationUnits Degrees
GlobalAxisofGravity Y
BoneLengthAxis Y
ScaleFactor 1.0
[SegmentNames&Hierarchy]
Hips	GLOBAL
Spine	Hips
Spine1	Spine
Spine2	Spine1
Neck	Spine2
Head	Neck
LeftEye	Head
RightEye	Head
LeftShoulder	Spine2
LeftArm	LeftShoulder
LeftForeArm	LeftArm
LeftHand	LeftForeArm
LeftHandThumb1	LeftHand
LeftHandThumb2	LeftHandThumb1
LeftHandThumb3	LeftHandThumb2
LeftHandThumb4	LeftHandThumb3
LeftHandIndex1	LeftHand
LeftHandIndex2	LeftHandIndex1
LeftHandIndex3	LeftHandIndex2
LeftHandIndex4	LeftHandIndex3
LeftHandMiddle1	LeftHand
LeftHandMiddle2	LeftHandMiddle1
LeftHandMiddle3	LeftHandMiddle2
LeftHandMiddle4	LeftHandMiddle3
LeftHandRing1	LeftHand
LeftHandRing2	LeftHandRing1
LeftHandRing3	LeftHandRing2
LeftHandRing4	LeftHandRing3
LeftHandPinky1	LeftHand
LeftHandPinky2	LeftHandPinky1
LeftHandPinky3	LeftHandPinky2
LeftHandPinky4	LeftHandPinky3
RightShoulder	Spine2
RightArm	RightShoulder
RightForeArm	RightArm
RightHand	RightForeArm
RightHandPinky1	RightHand
RightHandPinky2	RightHandPinky1
RightHandPinky3	RightHandPinky2
RightHandPinky4	RightHandPinky3
RightHandRing1	RightHand
RightHandRing2	RightHandRing1
RightHandRing3	RightHandRing2
RightHandRing4	RightHandRing3
RightHandMiddle1	RightHand
RightHandMiddle2	RightHandMiddle1
RightHandMiddle3	RightHandMiddle2
RightHandMiddle4	RightHandMiddle3
RightHandIndex1	RightHand
RightHandIndex2	RightHandIndex1
RightHandIndex3	RightHandIndex2
RightHandIndex4	RightHandIndex3
RightHandThumb1	RightHand
RightHandThumb2	RightHandThumb1
RightHandThumb3	RightHandThumb2
RightHandThumb4	RightHandThumb3
LeftUpLeg	Hips
LeftLeg	LeftUpLeg
LeftFoot	LeftLeg
LeftToeBase	LeftFoot
RightUpLeg	Hips
RightLeg	RightUpLeg
RightFoot	RightLeg
RightToeBase	RightFoot
[BasePosition]
Hips	0	0	0	0	0	0	1
Spine	0	0	0	0	0	0	1
Spine1	0	0	0	0	0	0	1
Spine2	0	0	0	0	0	0	1
Neck	0	0	0	0	0	0	1
Head	0	0	0	0	0	0	1
LeftEye	0	0	0	0	0	0	1
RightEye	0	0	0	0	0	0	1
LeftShoulder	0	0	0	0	0	0	1
LeftArm	0	0	0	0	0	0	1
LeftForeArm	0	0	0	0	0	0	1
LeftHand	0	0	0	0	0	0	1
LeftHandThumb1	0	0	0	0	0	0	1
LeftHandThumb2	0	0	0	0	0	0	1
LeftHandThumb3	0	0	0	0	0	0	1
LeftHandThumb4	0	0	0	0	0	0	1
LeftHandIndex1	0	0	0	0	0	0	1
LeftHandIndex2	0	0	0	0	0	0	1
LeftHandIndex3	0	0	0	0	0	0	1
LeftHandIndex4	0	0	0	0	0	0	1
LeftHandMiddle1	0	0	0	0	0	0	1
LeftHandMiddle2	0	0	0	0	0	0	1
LeftHandMiddle3	0	0	0	0	0	0	1
LeftHandMiddle4	0	0	0	0	0	0	1
LeftHandRing1	0	0	0	0	0	0	1
LeftHandRing2	0	0	0	0	0	0	1
LeftHandRing3	0	0	0	0	0	0	1
LeftHandRing4	0	0	0	0	0	0	1
LeftHandPinky1	0	0	0	0	0	0	1
LeftHandPinky2	0	0	0	0	0	0	1
LeftHandPinky3	0	0	0	0	0	0	1
LeftHandPinky4	0	0	0	0	0	0	1
RightShoulder	0	0	0	0	0	0	1
RightArm	0	0	0	0	0	0	1
RightForeArm	0	0	0	0	0	0	1
RightHand	0	0	0	0	0	0	1
RightHandPinky1	0	0	0	0	0	0	1
RightHandPinky2	0	0	0	0	0	0	1
RightHandPinky3	0	0	0	0	0	0	1
RightHandPinky4	0	0	0	0	0	0	1
RightHandRing1	0	0	0	0	0	0	1
RightHandRing2	0	0	0	0	0	0	1
RightHandRing3	0	0	0	0	0	0	1
RightHandRing4	0	0	0	0	0	0	1
RightHandMiddle1	0	0	0	0	0	0	1
RightHandMiddle2	0	0	0	0	0	0	1
RightHandMiddle3	0	0	0	0	0	0	1
RightHandMiddle4	0	0	0	0	0	0	1
RightHandIndex1	0	0	0	0	0	0	1
RightHandIndex2	0	0	0	0	0	0	1
RightHandIndex3	0	0	0	0	0	0	1
RightHandIndex4	0	0	0	0	0	0	1
RightHandThumb1	0	0	0	0	0	0	1
RightHandThumb2	0	0	0	0	0	0	1
RightHandThumb3	0	0	0	0	0	0	1
RightHandThumb4	0	0	0	0	0	0	1
LeftUpLeg	0	0	0	0	0	0	1
LeftLeg	0	0	0	0	0	0	1
LeftFoot	0	0	0	0	0	0	1
LeftToeBase	0	0	0	0	0	0	1
RightUpLeg	0	0	0	0	0	0	1
RightLeg	0	0	0	0	0	0	1
RightFoot	0	0	0	0	0	0	1
RightToeBase	0	0	0	0	0	0	1
[Hips]
1	1.43654716	1033.994751	14.22775269	-3.418464184	-5.443013191	-3.429036379	1.0
2	3.331706762	1033.810425	13.6409235	-2.832275391	-6.103863239	-3.361278296	1.0
3	6.093681335	1033.989502	12.8306179	-2.11477375	-6.93856287	-3.286320925	1.0
4	9.740553856	1034.203125	11.55258751	-1.172934651	-8.002220154	-3.19938755	1.0
[Spine]
1	0	101.8159943	1.315000057	3.367666721	1.381290555	2.820413113	1.0
2	0	101.8159943	1.315000057	3.444233894	1.589586735	2.894488096	1.0
3	0	101.8159943	1.315000057	3.585400581	1.701891065	2.986496687	1.0
4	0	101.8159943	1.315000057	3.780809402	1.6813761	3.072525024	1.0
[Spine1]
1	0	100.8349991	-10.00800037	1.160682201	0.3080509305	1.559330821	1.0
2	0	100.8349991	-10.00800037	1.19181788	0.3703398705	1.582050085	1.0
3	0	100.8349991	-10.00800037	1.246364474	0.3909827769	1.610004544	1.0
4	0	100.8349991	-10.00800037	1.323420763	0.3557083011	1.641299248	1.0
[Spine2]
1	0	91	-13.73399925	1.135434985	0.3307678699	1.562716007	1.0
2	0	91	-13.73399925	1.166443706	0.3930351436	1.585559368	1.0
3	0	91	-13.73399925	1.220919371	0.4136622548	1.613920689	1.0
4	0	91	-13.73399925	1.29795444	0.3782484531	1.646073937	1.0
[Neck]
1	0	166.7169952	-25.16200066	5.625518799	-0.1231569424	0.4447512031	1.0
2	0	166.7169952	-25.16200066	5.427733421	-0.1115846038	0.3652853966	1.0
3	0	166.7169952	-25.16200066	5.222180367	-0.05749176815	0.3405847549	1.0
4	0	166.7169952	-25.16200066	5.020907879	0.05068873614	0.410051614	1.0
[Head]
1	0	96.17900085	16.84999847	-7.567394257	1.353144288	-0.2609966993	1.0
2	0	96.17900085	16.84999847	-8.10766983	1.440460205	-0.5984221697	1.0
3	0	96.17900085	16.84999847	-8.682104111	1.747802258	-0.9962546229	1.0
4	0	96.17900085	16.84999847	-9.323892593	2.356594086	-1.465831757	1.0
[LeftEye]
1	30.6760006	64.09500122	92.83599854	0	0	0	1.0
2	30.6760006	64.09500122	92.83599854	0	0	0	1.0
3	30.6760006	64.09500122	92.83599854	0	0	0	1.0
4	30.6760006	64.09500122	92.83599854	0	0	0	1.0
[RightEye]
1	-30.6760006	64.09500122	92.83499908	0	0	0	1.0
2	-30.6760006	64.09500122	92.83499908	0	0	0	1.0
3	-30.6760006	64.09500122	92.83499908	0	0	0	1.0
4	-30.6760006	64.09500122	92.83499908	0	0	0	1.0
[LeftShoulder]
1	45.70400238	109.4599991	-26.28000069	4.903663158	-16.79105949	-13.2045536	1.0
2	45.70400238	109.4599991	-26.28000069	4.9648242	-16.8561821	-13.03676891	1.0
3	45.70400238	109.4599991	-26.28000069	4.993349552	-16.86479187	-12.68879509	1.0
4	45.70400238	109.4599991	-26.28000069	4.983008862	-16.79102707	-12.13011169	1.0
[LeftArm]
1	105.923996	-5.24600029	-22.32099915	20.12803841	-3.088285446	-71.00369263	1.0
2	105.923996	-5.24600029	-22.32099915	21.0988636	-4.179555893	-70.37545013	1.0
3	105.923996	-5.24600029	-22.32099915	21.99859047	-5.268471241	-69.81161499	1.0
4	105.923996	-5.24600029	-22.32099915	22.79859352	-6.289404392	-69.27680969	1.0
[LeftForeArm]
1	278.414978	-0.0009999999311	0	8.947698007e-06	-1.459366679	-0.0002043652494	1.0
2	278.414978	-0.0009999999311	0	1.591756273e-07	-1.586811185	-0.000197636924	1.0
3	278.414978	-0.0009999999311	0	-4.738643383e-06	-1.669800639	-0.0002149220381	1.0
4	278.414978	-0.0009999999311	0	-4.510674898e-06	-1.842474818	-0.0002154754329	1.0
[LeftHand]
1	283.2879944	0	0	-32.95537567	-4.523308277	-4.43965292	1.0
2	283.2879944	0	0	-32.8427124	-4.172367573	-4.553137302	1.0
3	283.2879944	0	0	-33.15147781	-3.699031115	-4.299557209	1.0
4	283.2879944	0	0	-33.57800674	-2.96632123	-3.41198802	1.0
[LeftHandThumb1]
1	24.6609993	-15.75	26.8239994	-0.4889836609	2.201390266	4.81856823	1.0
2	24.6609993	-15.75	26.8239994	-0.4889871478	2.201391697	4.818549156	1.0
3	24.6609993	-15.75	26.8239994	-0.4889885783	2.201395512	4.818552971	1.0
4	24.6609993	-15.75	26.8239994	-0.4889883101	2.201395035	4.81855011	1.0
[LeftHandThumb2]
1	32.29800034	-18.64699936	18.64699936	19.88581657	19.96446419	23.26735878	1.0
2	32.29800034	-18.64699936	18.64699936	20.20124245	20.0558567	23.24157524	1.0
3	32.29800034	-18.64699936	18.64699936	20.6119442	20.29359627	23.26432037	1.0
4	32.29800034	-18.64699936	18.64699936	21.1002636	20.6000061	23.42967224	1.0
[LeftHandThumb3]
1	26.52600098	-15.31499958	15.31499958	-13.14535618	5.551738739	7.967935085	1.0
2	26.52600098	-15.31499958	15.31499958	-13.15038967	5.443531513	7.925379276	1.0
3	26.52600098	-15.31499958	15.31499958	-13.32418442	5.154697418	8.145813942	1.0
4	26.52600098	-15.31499958	15.31499958	-13.3246603	5.033706188	8.255189896	1.0
[LeftHandThumb4]
1	19.54599953	-11.28499985	11.28499985	0	0	0	1.0
2	19.54599953	-11.28499985	11.28499985	0	0	0	1.0
3	19.54599953	-11.28499985	11.28499985	0	0	0	1.0
4	19.54599953	-11.28499985	11.28499985	0	0	0	1.0
[LeftHandIndex1]
1	91.09299469	-5.170999527	22.60099792	0.1480515152	-0.9618671536	-7.594519138	1.0
2	91.09299469	-5.170999527	22.60099792	0.1909921765	-0.7220895886	-8.248073578	1.0
3	91.09299469	-5.170999527	22.60099792	0.2650097311	-0.3407624662	-9.218462944	1.0
4	91.09299469	-5.170999527	22.60099792	0.3178776205	-0.04479074106	-10.01294994	1.0
[LeftHandIndex2]
1	36.76399994	0	0	-0.266703397	1.745171547	-17.37647057	1.0
2	36.76399994	0	0	-0.2668972015	1.745789886	-17.38281059	1.0
3	36.76399994	0	0	-0.2669077218	1.745832205	-17.38320732	1.0
4	36.76399994	0	0	-0.2665190399	1.744587183	-17.37042236	1.0
[LeftHandIndex3]
1	28.83100128	0	0	-0.057428509	0.8173380494	-8.038372993	1.0
2	28.83100128	0	0	-0.05751958862	0.8179767132	-8.044729233	1.0
3	28.83100128	0	0	-0.05752651393	0.8180153966	-8.045129776	1.0
4	28.83100128	0	0	-0.0573457703	0.8167274594	-8.032352448	1.0
[LeftHandIndex4]
1	23.92700005	0	0	0	0	0	1.0
2	23.92700005	0	0	0	0	0	1.0
3	23.92700005	0	0	0	0	0	1.0
4	23.92700005	0	0	0	0	0	1.0
[LeftHandMiddle1]
1	95.33399963	0	0	-0.7942891717	2.538624287	-15.71736717	1.0
2	95.33399963	0	0	-0.8239663243	2.640096664	-16.15377998	1.0
3	95.33399963	0	0	-0.8715396523	2.796217442	-16.84197807	1.0
4	95.33399963	0	0	-0.905990839	2.900195122	-17.33711624	1.0
[LeftHandMiddle2]
1	36.98199844	0	0	-0.2676118016	1.748068452	-17.40630722	1.0
2	36.98199844	0	0	-0.2660725713	1.743155122	-17.35575485	1.0
3	36.98199844	0	0	-0.2648684978	1.739310622	-17.31618881	1.0
4	36.98199844	0	0	-0.2644516528	1.737981081	-17.30252647	1.0
[LeftHandMiddle3]
1	29.50900078	0	0	-0.2992144227	1.845814586	-18.41412735	1.0
2	29.50900078	0	0	-0.2975807786	1.840897441	-18.36330414	1.0
3	29.50900078	0	0	-0.2963079214	1.837063074	-18.32365036	1.0
4	29.50900078	0	0	-0.2958585918	1.835710049	-18.30966187	1.0
[LeftHandMiddle4]
1	28.3390007	0	0	0	0	0	1.0
2	28.3390007	0	0	0	0	0	1.0
3	28.3390007	0	0	0	0	0	1.0
4	28.3390007	0	0	0	0	0	1.0
[LeftHandRing1]
1	91.04499817	-0.4390000105	-18.65100098	-1.184956908	3.4366436	-21.16630936	1.0
2	91.04499817	-0.4390000105	-18.65100098	-1.213010192	3.44003582	-21.53705406	1.0
3	91.04499817	-0.4390000105	-18.65100098	-1.256460071	3.478114605	-22.10499191	1.0
4	91.04499817	-0.4390000105	-18.65100098	-1.294614553	3.561577797	-22.60007286	1.0
[LeftHandRing2]
1	31.54000092	0	0	-0.3849363327	2.085558891	-20.91279984	1.0
2	31.54000092	0	0	-0.3859376013	2.088186026	-20.9403553	1.0
3	31.54000092	0	0	-0.3877107203	2.092810392	-20.98898506	1.0
4	31.54000092	0	0	-0.3899295628	2.098579884	-21.04963112	1.0
[LeftHandRing3]
1	29.37700081	0	0	-0.2818071544	1.792703629	-17.86577415	1.0
2	29.37700081	0	0	-0.2826730013	1.795388222	-17.89346123	1.0
3	29.37700081	0	0	-0.2842109203	1.800143719	-17.94249725	1.0
4	29.37700081	0	0	-0.2861071229	1.805991054	-18.00283051	1.0
[LeftHandRing4]
1	26.47500038	0	0	0	0	0	1.0
2	26.47500038	0	0	0	0	0	1.0
3	26.47500038	0	0	0	0	0	1.0
4	26.47500038	0	0	0	0	0	1.0
[LeftHandPinky1]
1	80.77799988	-4.887000084	-38.06099701	-1.70846951	5.355367184	-27.16539001	1.0
2	80.77799988	-4.887000084	-38.06099701	-1.734116316	5.228754997	-27.42971802	1.0
3	80.77799988	-4.887000084	-38.06099701	-1.78017807	5.0472188	-27.85891914	1.0
4	80.77799988	-4.887000084	-38.06099701	-1.811080217	4.862421036	-28.10165596	1.0
[LeftHandPinky2]
1	36	0	0	-0.2676201761	1.748110652	-17.40664482	1.0
2	36	0	0	-0.2687597573	1.751732826	-17.44389534	1.0
3	36	0	0	-0.2712042928	1.759479642	-17.52356339	1.0
4	36	0	0	-0.2732193172	1.765859365	-17.58921623	1.0
[LeftHandPinky3]
1	21.14200211	0	0	-0.2408534884	1.660354137	-16.50661659	1.0
2	21.14200211	0	0	-0.2419319451	1.663987517	-16.54378128	1.0
3	21.14200211	0	0	-0.2442522794	1.671770215	-16.62347031	1.0
4	21.14200211	0	0	-0.2461755574	1.678201795	-16.68930626	1.0
[LeftHandPinky4]
1	19.75699997	0	0	0	0	0	1.0
2	19.75699997	0	0	0	0	0	1.0
3	19.75699997	0	0	0	0	0	1.0
4	19.75699997	0	0	0	0	0	1.0
[RightShoulder]
1	-45.70000076	109.4620056	-26.28000069	5.183749676	14.5102253	15.52840328	1.0
2	-45.70000076	109.4620056	-26.28000069	5.146688938	14.49967098	15.50313377	1.0
3	-45.70000076	109.4620056	-26.28000069	5.097777367	14.48649502	15.40324783	1.0
4	-45.70000076	109.4620056	-26.28000069	5.047809124	14.52031517	15.26810074	1.0
[RightArm]
1	-105.9280014	-5.248000145	-22.32099915	30.23854256	2.220950365	62.62535477	1.0
2	-105.9280014	-5.248000145	-22.32099915	29.45121956	2.132911682	61.38596725	1.0
3	-105.9280014	-5.248000145	-22.32099915	28.43268013	1.908027649	59.96282578	1.0
4	-105.9280014	-5.248000145	-22.32099915	27.23576355	1.608395576	58.34992981	1.0
[RightForeArm]
1	-278.414978	0	0	-1.014430609e-06	6.693533421	-8.671583601e-06	1.0
2	-278.414978	0	0	-8.158313904e-06	8.963560104	-1.368177254e-05	1.0
3	-278.414978	0	0	-7.939762327e-06	11.8247261	-6.355074333e-07	1.0
4	-278.414978	0	0	-6.01343072e-06	15.00727272	-2.277193289e-06	1.0
[RightHand]
1	-283.2879944	0	0.0009999999311	-20.07678032	1.855671287	6.545353413	1.0
2	-283.2879944	0	0.0009999999311	-19.80563927	1.22454834	4.218326569	1.0
3	-283.2879944	0	0.0009999999311	-19.55765724	0.8182409406	1.226946235	1.0
4	-283.2879944	0	0.0009999999311	-19.55151558	0.6146516204	-2.315336466	1.0
[RightHandPinky1]
1	-80.76699829	-4.885000229	-38.06000137	-1.507182956	-4.696118355	26.50586891	1.0
2	-80.76699829	-4.885000229	-38.06000137	-1.615427136	-4.427650928	27.106987	1.0
3	-80.76699829	-4.885000229	-38.06000137	-1.775467277	-4.010934353	27.94615555	1.0
4	-80.76699829	-4.885000229	-38.06000137	-1.938511133	-3.564298868	28.74142647	1.0
[RightHandPinky2]
1	-36	0	0.0009999999311	-0.2127589583	-1.388873935	17.43785477	1.0
2	-36	0	0.0009999999311	-0.2091463804	-1.377305865	17.28813553	1.0
3	-36	0	0.0009999999311	-0.2077608556	-1.372851491	17.23051834	1.0
4	-36	0	0.0009999999311	-0.209864825	-1.379600644	17.31787491	1.0
[RightHandPinky3]
1	-21.14200211	0	0	-0.1919156313	-1.320599556	16.53640556	1.0
2	-21.14200211	0	0	-0.1884430945	-1.308838487	16.38479805	1.0
3	-21.14200211	0	0	-0.1870327443	-1.304068446	16.32340813	1.0
4	-21.14200211	0	0	-0.1889241338	-1.310498118	16.40622902	1.0
[RightHandPinky4]
1	-19.75699997	0	0	0	0	0	1.0
2	-19.75699997	0	0	0	0	0	1.0
3	-19.75699997	0	0	0	0	0	1.0
4	-19.75699997	0	0	0	0	0	1.0
[RightHandRing1]
1	-91.03599548	-0.4390000105	-18.65100098	-1.045238495	-2.883117914	20.47787666	1.0
2	-91.03599548	-0.4390000105	-18.65100098	-1.079902768	-2.738920689	21.00352859	1.0
3	-91.03599548	-0.4390000105	-18.65100098	-1.126326799	-2.510095835	21.70402336	1.0
4	-91.03599548	-0.4390000105	-18.65100098	-1.170772314	-2.296572208	22.36905479	1.0
[RightHandRing2]
1	-31.54000092	0	0	-0.306692481	-1.658751369	20.94924736	1.0
2	-31.54000092	0	0	-0.3081275523	-1.66249609	20.99882317	1.0
3	-31.54000092	0	0	-0.3113673627	-1.670922518	21.11038208	1.0
4	-31.54000092	0	0	-0.3179519475	-1.687847495	21.33479881	1.0
[RightHandRing3]
1	-29.37700081	0	0	-0.2245400101	-1.425852418	17.89772797	1.0
2	-29.37700081	0	0	-0.2257747203	-1.429683089	17.94732475	1.0
3	-29.37700081	0	0	-0.2285792381	-1.43831563	18.05945778	1.0
4	-29.37700081	0	0	-0.2342703491	-1.455611825	18.28442383	1.0
[RightHandRing4]
1	-26.47500038	0	0	0	0	0	1.0
2	-26.47500038	0	0	0	0	0	1.0
3	-26.47500038	0	0	0	0	0	1.0
4	-26.47500038	0	0	0	0	0	1.0
[RightHandMiddle1]
1	-95.32500458	0	0	-0.7017191052	-2.087755919	15.01528358	1.0
2	-95.32500458	0	0	-0.7358878255	-2.021685123	15.58713913	1.0
3	-95.32500458	0	0	-0.7843645215	-1.93244791	16.38805008	1.0
4	-95.32500458	0	0	-0.8232866526	-1.933553457	17.02332878	1.0
[RightHandMiddle2]
1	-36.98199844	0	0	-0.2132350355	-1.390361547	17.43751335	1.0
2	-36.98199844	0	0	-0.2143106908	-1.393807769	17.48204231	1.0
3	-36.98199844	0	0	-0.2155528665	-1.39774251	17.53307724	1.0
4	-36.98199844	0	0	-0.2180224359	-1.405527949	17.63401031	1.0
[RightHandMiddle3]
1	-29.50900078	0	0	-0.2384036481	-1.470122099	18.44692802	1.0
2	-29.50900078	0	0	-0.23956424	-1.473573089	18.49206161	1.0
3	-29.50900078	0	0	-0.2408971637	-1.47756207	18.54398537	1.0
4	-29.50900078	0	0	-0.2435085773	-1.485337853	18.64525414	1.0
[RightHandMiddle4]
1	-28.3390007	0	0.0009999999311	0	0	0	1.0
2	-28.3390007	0	0.0009999999311	0	0	0	1.0
3	-28.3390007	0	0.0009999999311	0	0	0	1.0
4	-28.3390007	0	0.0009999999311	0	0	0	1.0
[RightHandIndex1]
1	-91.08300018	-5.167999744	22.60099792	0.1884813458	1.25193727	6.825607777	1.0
2	-91.08300018	-5.167999744	22.60099792	0.1194358319	1.278627157	7.435235977	1.0
3	-91.08300018	-5.167999744	22.60099792	0.03688136116	1.302160382	8.363380432	1.0
4	-91.08300018	-5.167999744	22.60099792	-0.05399721116	1.313472152	9.324479103	1.0
[RightHandIndex2]
1	-36.76399994	0	0	-0.212509945	-1.388060093	17.40764618	1.0
2	-36.76399994	0	0	-0.2139536291	-1.392662764	17.4672966	1.0
3	-36.76399994	0	0	-0.2146145999	-1.394760728	17.49447441	1.0
4	-36.76399994	0	0	-0.2154039592	-1.397264123	17.52692032	1.0
[RightHandIndex3]
1	-28.83100128	0	0	-0.04576691613	-0.6501122117	8.0535326	1.0
2	-28.83100128	0	0	-0.04643829539	-0.6548605561	8.112717628	1.0
3	-28.83100128	0	0	-0.04676604271	-0.6571549177	8.141322136	1.0
4	-28.83100128	0	0	-0.04714793339	-0.6598075628	8.174423218	1.0
[RightHandIndex4]
1	-23.92700005	0	0	0	0	0	1.0
2	-23.92700005	0	0	0	0	0	1.0
3	-23.92700005	0	0	0	0	0	1.0
4	-23.92700005	0	0	0	0	0	1.0
[RightHandThumb1]
1	-24.64799881	-15.72700024	26.82600021	-1.658462048	-0.2891435027	-4.221324921	1.0
2	-24.64799881	-15.72700024	26.82600021	-1.658459544	-0.2891445756	-4.221329689	1.0
3	-24.64799881	-15.72700024	26.82600021	-1.658459544	-0.2891465127	-4.221328735	1.0
4	-24.64799881	-15.72700024	26.82600021	-1.658457875	-0.2891460359	-4.221326351	1.0
[RightHandThumb2]
1	-32.29800034	-18.64699936	18.64699936	22.25259399	-23.88968277	-24.28244781	1.0
2	-32.29800034	-18.64699936	18.64699936	21.93165016	-23.14268112	-24.10527611	1.0
3	-32.29800034	-18.64699936	18.64699936	21.5917244	-22.35136223	-23.89825249	1.0
4	-32.29800034	-18.64699936	18.64699936	21.3260746	-21.77425003	-23.62569809	1.0
[RightHandThumb3]
1	-26.52600098	-15.31399918	15.31399918	-14.47829533	-6.743855	-11.36568546	1.0
2	-26.52600098	-15.31399918	15.31399918	-14.49296474	-6.723736286	-11.45150757	1.0
3	-26.52600098	-15.31399918	15.31399918	-14.50859451	-6.703306198	-11.54788303	1.0
4	-26.52600098	-15.31399918	15.31399918	-14.52566814	-6.67538023	-11.62452793	1.0
[RightHandThumb4]
1	-19.54599953	-11.28499985	11.28499985	0	0	0	1.0
2	-19.54599953	-11.28499985	11.28499985	0	0	0	1.0
3	-19.54599953	-11.28499985	11.28499985	0	0	0	1.0
4	-19.54599953	-11.28499985	11.28499985	0	0	0	1.0
[LeftUpLeg]
1	82.07800293	-67.51699829	-15.99599934	-8.337859154	16.22644615	7.747322083	1.0
2	82.07800293	-67.51699829	-15.99599934	-8.932008743	16.79907608	7.711427212	1.0
3	82.07800293	-67.51699829	-15.99599934	-9.504682541	17.26765442	7.559003353	1.0
4	82.07800293	-67.51699829	-15.99599934	-10.28509426	17.63796806	7.268500328	1.0
[LeftLeg]
1	0	-443.7049866	2.845999956	12.27550125	1.103354335	4.506643772	1.0
2	0	-443.7049866	2.845999956	12.5330677	1.339915156	4.019600391	1.0
3	0	-443.7049866	2.845999956	12.50364017	1.893089652	3.648505211	1.0
4	0	-443.7049866	2.845999956	12.42065048	2.810222149	3.380491972	1.0
[LeftFoot]
1	0	-444.2789917	-29.8219986	1.203208923	0.6686760187	-7.098482609	1.0
2	0	-444.2789917	-29.8219986	1.064723134	0.6731678843	-6.716836452	1.0
3	0	-444.2789917	-29.8219986	1.072634339	0.6681130528	-6.331105709	1.0
4	0	-444.2789917	-29.8219986	1.130417705	0.6457573771	-5.926961899	1.0
[LeftToeBase]
1	0	-87.28699493	107.1060028	-4.928526402	5.813024018e-06	-1.443470751e-06	1.0
2	0	-87.28699493	107.1060028	-4.928523064	2.752939054e-06	7.581363093e-07	1.0
3	0	-87.28699493	107.1060028	-4.928525448	4.236956556e-06	9.978016351e-07	1.0
4	0	-87.28699493	107.1060028	-4.928524971	3.00811098e-06	5.790295745e-07	1.0
[RightUpLeg]
1	-82.07800293	-67.51699829	-15.99599934	0.01734786294	-10.41087055	3.456106663	1.0
2	-82.07800293	-67.51699829	-15.99599934	-0.8624970913	-10.34255123	3.321540356	1.0
3	-82.07800293	-67.51699829	-15.99599934	-1.686358213	-10.19881916	3.154483318	1.0
4	-82.07800293	-67.51699829	-15.99599934	-2.766159773	-9.820344925	3.002470016	1.0
[RightLeg]
1	0	-443.7049866	2.861999989	7.963569641	-9.246132851	-4.548676014	1.0
2	0	-443.7049866	2.861999989	8.291786194	-9.32366848	-4.545359612	1.0
3	0	-443.7049866	2.861999989	8.139579773	-9.119820595	-4.397173882	1.0
4	0	-443.7049866	2.861999989	7.868692398	-8.588302612	-4.221529484	1.0
[RightFoot]
1	0	-444.2770081	-29.83799934	-3.731407166	-1.439762712	3.293233395	1.0
2	0	-444.2770081	-29.83799934	-3.683845997	-0.6972562671	3.3380723	1.0
3	0	-444.2770081	-29.83799934	-3.360331297	-0.1746913791	3.354001284	1.0
4	0	-444.2770081	-29.83799934	-2.903261423	0.01130029559	3.399804831	1.0
[RightToeBase]
1	0	-87.28699493	107.1060028	-7.282872677	1.53975293e-06	1.76867843e-07	1.0
2	0	-87.28699493	107.1060028	-7.287170887	8.768705811e-06	-1.328920007e-06	1.0
3	0	-87.28699493	107.1060028	-7.297261238	4.393732979e-06	-8.950685242e-07	1.0
4	0	-87.28699493	107.1060028	-7.312419415	-4.237977009e-06	-3.383107412e-07	1.0
[EndOfFile]
